<?xml version="1.0" encoding="UTF-8" standalone="no"?>
<!DOCTYPE svg PUBLIC "-//W3C//DTD SVG 1.1//EN" "http://www.w3.org/Graphics/SVG/1.1/DTD/svg11.dtd">
<svg width="100%" height="100%" viewBox="0 0 630 111" version="1.1" xmlns="http://www.w3.org/2000/svg" xmlns:xlink="http://www.w3.org/1999/xlink" xml:space="preserve" xmlns:serif="http://www.serif.com/" style="fill-rule:evenodd;clip-rule:evenodd;stroke-linejoin:round;stroke-miterlimit:2;">
    <g transform="matrix(1,0,0,1,-178.149,-208.32)">
        <g transform="matrix(0.1,0,0,-0.1,113.043,369.32)">
            <path d="M5082,1594C4898,1554 4770,1433 4720,1252C4702,1187 4700,1149 4700,860L4700,540L4960,540L4960,825C4960,989 4965,1130 4971,1159C4984,1223 5025,1278 5081,1309C5120,1331 5140,1334 5263,1338L5400,1342L5400,1610L5273,1609C5202,1608 5117,1602 5082,1594Z" style="fill-rule:nonzero;"/>
        </g>
        <g transform="matrix(0.1,0,0,-0.1,113.043,369.32)">
            <path d="M2490,1564C2359,1529 2254,1444 2196,1326C2062,1056 2154,715 2393,594C2489,545 2530,540 2836,540L3121,540L3118,673L3115,805L2830,810C2567,815 2543,817 2515,835C2474,862 2467,869 2434,920C2408,962 2405,972 2405,1061C2405,1150 2407,1160 2435,1205C2457,1241 2480,1262 2519,1282L2572,1310L3120,1310L3120,1580L2833,1579C2613,1579 2532,1575 2490,1564Z" style="fill-rule:nonzero;"/>
        </g>
        <g transform="matrix(0.1,0,0,-0.1,113.043,369.32)">
            <path d="M3390,1273C3390,1090 3395,940 3401,901C3444,651 3667,486 3939,503C4145,516 4307,617 4381,780C4423,871 4430,955 4428,1275L4425,1575L4161,1581L4155,925L4127,877C4091,817 4040,782 3963,769C3838,747 3730,795 3684,893C3660,945 3660,948 3660,1263L3660,1580L3390,1580L3390,1273Z" style="fill-rule:nonzero;"/>
        </g>
        <g transform="matrix(0.1,0,0,-0.1,113.043,369.32)">
            <path d="M5883,1561C5763,1526 5653,1439 5603,1339C5548,1226 5545,1213 5545,1060C5545,907 5547,897 5603,780C5615,755 5650,710 5681,679C5776,581 5886,540 6049,540L6150,540L6150,810L6065,810C6010,810 5966,816 5942,826C5862,859 5810,936 5803,1035C5794,1148 5840,1243 5924,1285C5971,1309 5984,1310 6137,1310L6300,1310L6300,926C6300,683 6304,540 6310,538C6315,536 6376,536 6445,538L6570,541L6570,1580L6258,1579C5990,1579 5936,1576 5883,1561Z" style="fill-rule:nonzero;"/>
        </g>
        <g transform="matrix(0.490836,0,0,0.490836,-14.952,84.9179)">
            <path d="M613.618,254.11L613.618,399.434L540.15,474.494L393.413,474.494L393.413,328.371L466.71,254.496L613.618,254.11Z" style="fill:rgb(0,172,233);"/>
        </g>
        <g transform="matrix(0.393066,0,0,0.623307,-39.8339,53.2853)">
            <path d="M762.561,380.104L690.654,380.104C651.94,380.104 620.508,360.283 620.508,335.87L620.508,328.823C620.508,304.41 651.94,284.589 690.654,284.589L762.561,284.589L762.561,309.855L692.474,309.855C673.587,309.855 658.253,319.525 658.253,331.435L658.253,333.618C658.253,345.529 673.587,355.198 692.474,355.198L762.561,355.198L762.561,380.104Z" style="fill:white;"/>
        </g>
        <g transform="matrix(0.105958,0,0,0.105958,742.639,265.595)">
            <path d="M613.618,254.11L613.618,399.434L540.15,474.494L393.413,474.494L393.413,328.371L466.71,254.496L613.618,254.11Z" style="fill:rgb(0,172,233);"/>
        </g>
    </g>
</svg>
