<?xml version="1.0" encoding="UTF-8" standalone="no"?>
<!DOCTYPE svg PUBLIC "-//W3C//DTD SVG 1.1//EN" "http://www.w3.org/Graphics/SVG/1.1/DTD/svg11.dtd">
<svg width="100%" height="100%" viewBox="0 0 673 120" version="1.1" xmlns="http://www.w3.org/2000/svg" xmlns:xlink="http://www.w3.org/1999/xlink" xml:space="preserve" xmlns:serif="http://www.serif.com/" style="fill-rule:evenodd;clip-rule:evenodd;stroke-linecap:round;stroke-linejoin:round;stroke-miterlimit:1.5;">
    <g transform="matrix(1,0,0,1,-171.617,-490.268)">
        <path d="M379.031,555.545L370.451,555.545C355.38,555.545 343.144,543.309 343.144,528.238L343.144,523.17C343.144,508.099 355.38,495.863 370.451,495.863L431.837,495.863L431.837,513.936L376.755,513.936C370.506,513.936 365.432,519.009 365.432,525.259C365.432,531.508 370.506,536.582 376.755,536.582L400.17,536.582L400.17,536.59L408.75,536.59C423.821,536.59 436.057,548.826 436.057,563.897L436.057,568.965C436.057,584.036 423.821,596.272 408.75,596.272L347.364,596.272L347.364,578.199L402.446,578.199C408.695,578.199 413.769,573.126 413.769,566.876C413.769,560.627 408.695,555.553 402.446,555.553L379.031,555.553L379.031,555.545Z" style="fill:rgb(0,170,156);"/>
        <g transform="matrix(0.982567,0,0,0.982567,6.74262,6.27462)">
            <circle cx="228.72" cy="553.501" r="60.92" style="fill:rgb(0,170,156);"/>
        </g>
        <path d="M189.302,592.588L220.029,573.345L181.876,559.479L257.706,503.692L282.169,526.055L237.457,554.969L272.407,579.676L202.286,602.387C197.518,599.717 193.152,596.412 189.302,592.588Z" style="fill:white;stroke:white;stroke-width:0.5px;"/>
        <path d="M492.564,596.958L488.262,596.958C465.041,596.958 446.189,578.105 446.189,554.884L446.189,538.042C446.189,514.821 465.041,495.969 488.262,495.969L492.564,495.969L492.564,513.195L491.82,513.195C479.913,513.195 470.246,522.862 470.246,534.768L470.246,558.158C470.246,570.065 479.913,579.732 491.82,579.732L492.564,579.732L492.564,596.958ZM498.565,495.969L502.867,495.969C526.088,495.969 544.94,514.821 544.94,538.042L544.94,554.884C544.94,578.105 526.088,596.958 502.867,596.958L498.565,596.958L498.565,579.732L499.309,579.732C511.216,579.732 520.883,570.065 520.883,558.158L520.883,534.768C520.883,522.862 511.216,513.195 499.309,513.195L498.565,513.195L498.565,495.969Z" style="fill:rgb(0,170,156);"/>
        <g transform="matrix(1,0,0,1,215.854,0)">
            <path d="M492.564,596.958L488.262,596.958C465.041,596.958 446.189,578.105 446.189,554.884L446.189,538.042C446.189,514.821 465.041,495.969 488.262,495.969L492.564,495.969L492.564,513.195L491.82,513.195C479.913,513.195 470.246,522.862 470.246,534.768L470.246,558.158C470.246,570.065 479.913,579.732 491.82,579.732L492.564,579.732L492.564,596.958ZM498.565,495.969L502.867,495.969C526.088,495.969 544.94,514.821 544.94,538.042L544.94,554.884C544.94,578.105 526.088,596.958 502.867,596.958L498.565,596.958L498.565,579.732L499.309,579.732C511.216,579.732 520.883,570.065 520.883,558.158L520.883,534.768C520.883,522.862 511.216,513.195 499.309,513.195L498.565,513.195L498.565,495.969Z" style="fill:rgb(0,170,156);"/>
        </g>
        <path d="M603.524,569.86L634.873,495.901L657.019,495.901L614.473,596.278L592.327,596.278L550.725,495.901L572.872,495.901L603.524,569.86Z" style="fill:rgb(0,170,156);"/>
        <path d="M797.022,495.657L797.022,560.133C797.022,570.106 805.119,578.202 815.091,578.202L844.306,578.202L844.306,596.343L808.064,596.343C790.44,596.343 776.132,582.035 776.132,564.411L776.132,495.657L797.022,495.657Z" style="fill:rgb(0,170,156);"/>
    </g>
</svg>
